<svg version="1" xmlns="http://www.w3.org/2000/svg" viewBox="0 0 300 300"><path d="M83.4 289c-20.6-.6-37.8-7.7-51.6-21.5-13.8-13.8-20.9-30.9-21.5-51.6V83.4c.6-20.6 7.7-37.8 21.5-51.6 13.7-13.7 30.9-20.9 51.6-21.5v13.4c-16.9.6-30.9 6.4-42.1 17.6-11.1 11.1-17 25.2-17.6 42.1V216c.6 16.9 6.4 30.9 17.6 42.1 11.1 11.1 25.2 17 42.1 17.6V289zm132.6-6.4v-7c16.9-.6 30.9-6.4 42.1-17.6 11.1-11.1 17-25.2 17.6-42.1V83.4c-.6-16.9-6.4-30.9-17.6-42.1-11.1-11.1-25.2-17-42.1-17.6V10.4c20.6.6 37.8 7.7 51.6 21.5 13.7 13.8 20.9 30.9 21.5 51.6V216c-.6 20.6-7.7 37.8-21.5 51.6-13.8 13.7-30.9 20.9-51.6 21.5v-6.5z"/></svg>